<svg width="204" height="204" viewBox="0 0 204 204" fill="none" xmlns="http://www.w3.org/2000/svg">
<rect x="20" y="20" width="164" height="164" rx="82" fill="#2B2730"/>
<path d="M82.5627 78.0254V71.7672H93.4654V100.5H86.4594V78.0254H82.5627ZM101.888 100.815C100.707 100.815 99.7359 100.474 98.9749 99.7915C98.2402 99.083 97.8728 98.2171 97.8728 97.1938C97.8728 96.1442 98.2402 95.2651 98.9749 94.5566C99.7359 93.8482 100.707 93.4939 101.888 93.4939C103.042 93.4939 103.987 93.8482 104.721 94.5566C105.482 95.2651 105.863 96.1442 105.863 97.1938C105.863 98.2171 105.482 99.083 104.721 99.7915C103.987 100.474 103.042 100.815 101.888 100.815ZM101.888 84.7954C100.707 84.7954 99.7359 84.4542 98.9749 83.772C98.2402 83.0635 97.8728 82.1976 97.8728 81.1742C97.8728 80.1246 98.2402 79.2456 98.9749 78.5371C99.7359 77.8286 100.707 77.4744 101.888 77.4744C103.042 77.4744 103.987 77.8286 104.721 78.5371C105.482 79.2456 105.863 80.1246 105.863 81.1742C105.863 82.1976 105.482 83.0635 104.721 83.772C103.987 84.4542 103.042 84.7954 101.888 84.7954ZM108.546 78.0254V71.7672H119.449V100.5H112.443V78.0254H108.546Z" fill="white"/>
<path d="M53.6598 135.351L56.0411 127.519H59.6229L55.7262 138.5H51.5738L47.6771 127.519H51.2786L53.6598 135.351ZM62.7319 126.377C62.1415 126.377 61.656 126.207 61.2755 125.865C60.9082 125.511 60.7245 125.078 60.7245 124.567C60.7245 124.042 60.9082 123.609 61.2755 123.268C61.656 122.913 62.1415 122.736 62.7319 122.736C63.3091 122.736 63.7815 122.913 64.1488 123.268C64.5293 123.609 64.7195 124.042 64.7195 124.567C64.7195 125.078 64.5293 125.511 64.1488 125.865C63.7815 126.207 63.3091 126.377 62.7319 126.377ZM64.4047 127.519V138.5H61.0394V127.519H64.4047ZM66.1743 132.99C66.1743 131.861 66.3843 130.871 66.8041 130.018C67.2371 129.165 67.8209 128.509 68.5556 128.05C69.2903 127.591 70.1103 127.361 71.0156 127.361C71.7372 127.361 72.3932 127.512 72.9836 127.814C73.5871 128.116 74.0595 128.522 74.4006 129.034V123.937H77.7659V138.5H74.4006V136.926C74.0857 137.45 73.6331 137.87 73.0427 138.185C72.4654 138.5 71.7897 138.657 71.0156 138.657C70.1103 138.657 69.2903 138.428 68.5556 137.969C67.8209 137.496 67.2371 136.834 66.8041 135.981C66.3843 135.115 66.1743 134.118 66.1743 132.99ZM74.4006 133.009C74.4006 132.17 74.1644 131.507 73.6921 131.022C73.2329 130.536 72.6687 130.293 71.9996 130.293C71.3305 130.293 70.7598 130.536 70.2875 131.022C69.8283 131.494 69.5987 132.15 69.5987 132.99C69.5987 133.829 69.8283 134.498 70.2875 134.997C70.7598 135.482 71.3305 135.725 71.9996 135.725C72.6687 135.725 73.2329 135.482 73.6921 134.997C74.1644 134.512 74.4006 133.849 74.4006 133.009ZM90.5522 132.832C90.5522 133.147 90.5325 133.475 90.4931 133.816H82.877C82.9294 134.498 83.1459 135.023 83.5264 135.391C83.92 135.745 84.3989 135.922 84.9631 135.922C85.8027 135.922 86.3866 135.568 86.7146 134.859H90.2963C90.1127 135.581 89.7781 136.23 89.2927 136.808C88.8203 137.385 88.2234 137.837 87.5018 138.165C86.7802 138.493 85.9733 138.657 85.0811 138.657C84.0053 138.657 83.0475 138.428 82.2078 137.969C81.3682 137.509 80.7122 136.853 80.2398 136.001C79.7675 135.148 79.5314 134.151 79.5314 133.009C79.5314 131.868 79.761 130.871 80.2202 130.018C80.6925 129.165 81.3485 128.509 82.1882 128.05C83.0278 127.591 83.9922 127.361 85.0811 127.361C86.1439 127.361 87.0885 127.584 87.9151 128.03C88.7416 128.476 89.3845 129.113 89.8437 129.939C90.316 130.766 90.5522 131.73 90.5522 132.832ZM87.1082 131.947C87.1082 131.369 86.9114 130.91 86.5178 130.569C86.1242 130.228 85.6322 130.057 85.0418 130.057C84.4776 130.057 83.9987 130.221 83.6051 130.549C83.2247 130.877 82.9885 131.343 82.8966 131.947H87.1082ZM97.3262 138.657C96.2504 138.657 95.2795 138.428 94.4136 137.969C93.5608 137.509 92.8851 136.853 92.3866 136.001C91.9011 135.148 91.6584 134.151 91.6584 133.009C91.6584 131.881 91.9077 130.89 92.4062 130.038C92.9048 129.172 93.587 128.509 94.453 128.05C95.3189 127.591 96.2898 127.361 97.3656 127.361C98.4414 127.361 99.4123 127.591 100.278 128.05C101.144 128.509 101.826 129.172 102.325 130.038C102.824 130.89 103.073 131.881 103.073 133.009C103.073 134.138 102.817 135.135 102.305 136.001C101.807 136.853 101.118 137.509 100.239 137.969C99.373 138.428 98.4021 138.657 97.3262 138.657ZM97.3262 135.745C97.9691 135.745 98.5136 135.509 98.9597 135.036C99.4189 134.564 99.6485 133.888 99.6485 133.009C99.6485 132.13 99.4254 131.455 98.9794 130.982C98.5464 130.51 98.0085 130.274 97.3656 130.274C96.7096 130.274 96.1651 130.51 95.7322 130.982C95.2992 131.441 95.0827 132.117 95.0827 133.009C95.0827 133.888 95.2926 134.564 95.7125 135.036C96.1454 135.509 96.6834 135.745 97.3262 135.745ZM108.36 133.009C108.36 131.868 108.589 130.871 109.048 130.018C109.521 129.165 110.17 128.509 110.997 128.05C111.836 127.591 112.794 127.361 113.87 127.361C115.248 127.361 116.396 127.722 117.314 128.444C118.245 129.165 118.856 130.182 119.144 131.494H115.562C115.261 130.654 114.677 130.234 113.811 130.234C113.194 130.234 112.702 130.477 112.335 130.963C111.968 131.435 111.784 132.117 111.784 133.009C111.784 133.901 111.968 134.59 112.335 135.076C112.702 135.548 113.194 135.784 113.811 135.784C114.677 135.784 115.261 135.364 115.562 134.525H119.144C118.856 135.81 118.245 136.821 117.314 137.555C116.382 138.29 115.234 138.657 113.87 138.657C112.794 138.657 111.836 138.428 110.997 137.969C110.17 137.509 109.521 136.853 109.048 136.001C108.589 135.148 108.36 134.151 108.36 133.009ZM120.275 132.99C120.275 131.861 120.485 130.871 120.905 130.018C121.338 129.165 121.922 128.509 122.656 128.05C123.391 127.591 124.211 127.361 125.116 127.361C125.891 127.361 126.566 127.519 127.143 127.833C127.734 128.148 128.187 128.562 128.501 129.073V127.519H131.867V138.5H128.501V136.945C128.173 137.457 127.714 137.87 127.124 138.185C126.547 138.5 125.871 138.657 125.097 138.657C124.205 138.657 123.391 138.428 122.656 137.969C121.922 137.496 121.338 136.834 120.905 135.981C120.485 135.115 120.275 134.118 120.275 132.99ZM128.501 133.009C128.501 132.17 128.265 131.507 127.793 131.022C127.334 130.536 126.77 130.293 126.1 130.293C125.431 130.293 124.861 130.536 124.388 131.022C123.929 131.494 123.699 132.15 123.699 132.99C123.699 133.829 123.929 134.498 124.388 134.997C124.861 135.482 125.431 135.725 126.1 135.725C126.77 135.725 127.334 135.482 127.793 134.997C128.265 134.512 128.501 133.849 128.501 133.009ZM137.667 123.937V138.5H134.301V123.937H137.667ZM143.471 123.937V138.5H140.105V123.937H143.471ZM150.377 138.657C149.419 138.657 148.566 138.493 147.818 138.165C147.071 137.837 146.48 137.391 146.047 136.827C145.614 136.25 145.372 135.607 145.319 134.899H148.645C148.684 135.279 148.861 135.587 149.176 135.824C149.491 136.06 149.878 136.178 150.337 136.178C150.757 136.178 151.079 136.099 151.302 135.942C151.538 135.771 151.656 135.555 151.656 135.292C151.656 134.977 151.492 134.748 151.164 134.603C150.836 134.446 150.305 134.275 149.57 134.092C148.783 133.908 148.127 133.718 147.602 133.521C147.077 133.311 146.624 132.99 146.244 132.557C145.864 132.111 145.673 131.514 145.673 130.766C145.673 130.136 145.844 129.565 146.185 129.054C146.539 128.529 147.051 128.116 147.72 127.814C148.402 127.512 149.209 127.361 150.141 127.361C151.518 127.361 152.601 127.702 153.388 128.384C154.188 129.067 154.647 129.972 154.765 131.1H151.656C151.604 130.72 151.433 130.418 151.144 130.195C150.869 129.972 150.501 129.86 150.042 129.86C149.649 129.86 149.347 129.939 149.137 130.097C148.927 130.241 148.822 130.444 148.822 130.707C148.822 131.022 148.986 131.258 149.314 131.415C149.655 131.573 150.18 131.73 150.888 131.888C151.702 132.097 152.364 132.307 152.876 132.517C153.388 132.714 153.834 133.042 154.214 133.501C154.608 133.947 154.811 134.551 154.824 135.312C154.824 135.955 154.641 136.532 154.273 137.044C153.919 137.542 153.401 137.936 152.719 138.224C152.05 138.513 151.269 138.657 150.377 138.657Z" fill="white"/>
<circle cx="102" cy="102" r="101" stroke="#2B2730" stroke-width="2"/>
</svg>
