<svg width="94" height="25" viewBox="0 0 94 25" fill="none" xmlns="http://www.w3.org/2000/svg">
<path d="M16.1676 4.60799L7.76759 24.36H3.35159L6.42359 17.544L0.975586 4.60799H5.55959L8.65559 12.984L11.7276 4.60799H16.1676Z" fill="#2B2730"/>
<path d="M23.7476 18.192C22.4356 18.192 21.2516 17.912 20.1956 17.352C19.1556 16.792 18.3316 15.992 17.7236 14.952C17.1316 13.912 16.8356 12.696 16.8356 11.304C16.8356 9.92799 17.1396 8.71999 17.7476 7.67999C18.3556 6.62399 19.1876 5.81599 20.2436 5.25599C21.2996 4.69599 22.4836 4.41599 23.7956 4.41599C25.1076 4.41599 26.2916 4.69599 27.3476 5.25599C28.4036 5.81599 29.2356 6.62399 29.8436 7.67999C30.4516 8.71999 30.7556 9.92799 30.7556 11.304C30.7556 12.68 30.4436 13.896 29.8196 14.952C29.2116 15.992 28.3716 16.792 27.2996 17.352C26.2436 17.912 25.0596 18.192 23.7476 18.192ZM23.7476 14.64C24.5316 14.64 25.1956 14.352 25.7396 13.776C26.2996 13.2 26.5796 12.376 26.5796 11.304C26.5796 10.232 26.3076 9.40799 25.7636 8.83199C25.2356 8.25599 24.5796 7.96799 23.7956 7.96799C22.9956 7.96799 22.3316 8.25599 21.8036 8.83199C21.2756 9.39199 21.0116 10.216 21.0116 11.304C21.0116 12.376 21.2676 13.2 21.7796 13.776C22.3076 14.352 22.9636 14.64 23.7476 14.64Z" fill="#2B2730"/>
<path d="M32.1169 11.28C32.1169 9.90399 32.3729 8.69599 32.8849 7.65599C33.4129 6.61599 34.1249 5.81599 35.0209 5.25599C35.9169 4.69599 36.9169 4.41599 38.0209 4.41599C38.9009 4.41599 39.7009 4.59999 40.4209 4.96799C41.1569 5.33599 41.7329 5.83199 42.1489 6.45599V0.23999H46.2529V18H42.1489V16.08C41.7649 16.72 41.2129 17.232 40.4929 17.616C39.7889 18 38.9649 18.192 38.0209 18.192C36.9169 18.192 35.9169 17.912 35.0209 17.352C34.1249 16.776 33.4129 15.968 32.8849 14.928C32.3729 13.872 32.1169 12.656 32.1169 11.28ZM42.1489 11.304C42.1489 10.28 41.8609 9.47199 41.2849 8.87999C40.7249 8.28799 40.0369 7.99199 39.2209 7.99199C38.4049 7.99199 37.7089 8.28799 37.1329 8.87999C36.5729 9.45599 36.2929 10.256 36.2929 11.28C36.2929 12.304 36.5729 13.12 37.1329 13.728C37.7089 14.32 38.4049 14.616 39.2209 14.616C40.0369 14.616 40.7249 14.32 41.2849 13.728C41.8609 13.136 42.1489 12.328 42.1489 11.304Z" fill="#2B2730"/>
<path d="M55.318 18.192C54.006 18.192 52.822 17.912 51.766 17.352C50.726 16.792 49.902 15.992 49.294 14.952C48.702 13.912 48.406 12.696 48.406 11.304C48.406 9.92799 48.71 8.71999 49.318 7.67999C49.926 6.62399 50.758 5.81599 51.814 5.25599C52.87 4.69599 54.054 4.41599 55.366 4.41599C56.678 4.41599 57.862 4.69599 58.918 5.25599C59.974 5.81599 60.806 6.62399 61.414 7.67999C62.022 8.71999 62.326 9.92799 62.326 11.304C62.326 12.68 62.014 13.896 61.39 14.952C60.782 15.992 59.942 16.792 58.87 17.352C57.814 17.912 56.63 18.192 55.318 18.192ZM55.318 14.64C56.102 14.64 56.766 14.352 57.31 13.776C57.87 13.2 58.15 12.376 58.15 11.304C58.15 10.232 57.878 9.40799 57.334 8.83199C56.806 8.25599 56.15 7.96799 55.366 7.96799C54.566 7.96799 53.902 8.25599 53.374 8.83199C52.846 9.39199 52.582 10.216 52.582 11.304C52.582 12.376 52.838 13.2 53.35 13.776C53.878 14.352 54.534 14.64 55.318 14.64Z" fill="#2B2730"/>
<path d="M68.6072 6.83999C69.0872 6.10399 69.6872 5.52799 70.4072 5.11199C71.1272 4.67999 71.9272 4.46399 72.8072 4.46399V8.80799H71.6792C70.6552 8.80799 69.8872 9.03199 69.3752 9.47999C68.8632 9.91199 68.6072 10.68 68.6072 11.784V18H64.5032V4.60799H68.6072V6.83999Z" fill="#2B2730"/>
<path d="M73.9528 11.28C73.9528 9.90399 74.2088 8.69599 74.7208 7.65599C75.2488 6.61599 75.9608 5.81599 76.8568 5.25599C77.7528 4.69599 78.7528 4.41599 79.8568 4.41599C80.8008 4.41599 81.6248 4.60799 82.3288 4.99199C83.0488 5.37599 83.6008 5.87999 83.9848 6.50399V4.60799H88.0888V18H83.9848V16.104C83.5848 16.728 83.0248 17.232 82.3048 17.616C81.6008 18 80.7768 18.192 79.8328 18.192C78.7448 18.192 77.7528 17.912 76.8568 17.352C75.9608 16.776 75.2488 15.968 74.7208 14.928C74.2088 13.872 73.9528 12.656 73.9528 11.28ZM83.9848 11.304C83.9848 10.28 83.6968 9.47199 83.1208 8.87999C82.5608 8.28799 81.8728 7.99199 81.0568 7.99199C80.2408 7.99199 79.5448 8.28799 78.9688 8.87999C78.4088 9.45599 78.1288 10.256 78.1288 11.28C78.1288 12.304 78.4088 13.12 78.9688 13.728C79.5448 14.32 80.2408 14.616 81.0568 14.616C81.8728 14.616 82.5608 14.32 83.1208 13.728C83.6968 13.136 83.9848 12.328 83.9848 11.304Z" fill="#2B2730"/>
<circle cx="92" cy="16.5" r="2" fill="#FFB84C"/>
</svg>
